<?xml version="1.0" encoding="utf-8"?>
<!-- Generator: Adobe Illustrator 25.0.0, SVG Export Plug-In . SVG Version: 6.00 Build 0)  -->
<svg version="1.1" id="Layer_1" xmlns="http://www.w3.org/2000/svg" xmlns:xlink="http://www.w3.org/1999/xlink" x="0px" y="0px"
	 viewBox="0 0 283.5 283.5" style="enable-background:new 0 0 283.5 283.5;" xml:space="preserve">
<style type="text/css">
	.st0{fill:#06ABDD;}
	.st1{fill:#FEFEFE;}
	.st2{fill:none;}
	.st3{fill:#030102;}
	.st4{fill:#E04332;}
	.st5{fill:#FDFCFD;}
</style>
<g>
	<g>
		<path class="st0" d="M141.7,7.7c-74,0-134,60-134,134s60,134,134,134s134-60,134-134S215.7,7.7,141.7,7.7z M141.7,239.1
			c-53.8,0-97.4-43.6-97.4-97.4s43.6-97.4,97.4-97.4s97.4,43.6,97.4,97.4S195.5,239.1,141.7,239.1z"/>
		<circle class="st1" cx="141.7" cy="141.7" r="97.4"/>
	</g>
	<g>
		<path class="st2" d="M119.2,110.3c-1.2,0-2.1,1-2.1,1s0.9,1,2.1,1s2.1-1,2.1-1S120.4,110.3,119.2,110.3z"/>
		<path class="st2" d="M150,119.8v2.8V119.8C150.1,119.8,150,119.8,150,119.8z"/>
		<path class="st2" d="M150,154v0.2C150.1,154.1,150.1,154.1,150,154z"/>
		<path class="st2" d="M135.7,201.2v-7.6V201.2C135.7,201.1,135.7,201.2,135.7,201.2z"/>
		<g>
			<path class="st3" d="M135.7,201.2c0.1,0.4,0.7,2.8,8.1,4.7c2,0.5,4.2,0.3,6.2-0.2v-10.6l-0.1,0.1v-9.6c0,0,1-1.3-9.9-4.3
				c-1.6-0.4-3.1-0.9-4.3-1.4v8l0,0v5.8V201.2L135.7,201.2z"/>
			<path class="st3" d="M135.7,167.9c0.8,1.6,8.8,3.6,14.3,5.1v-17.1c0-1.1,0-1.8,0-1.8l0,0V154c-0.1-0.5-1.4-1.8-9.9-4.1
				c-1.7-0.5-3.1-0.9-4.5-1.5L135.7,167.9L135.7,167.9z"/>
			<path class="st3" d="M150,119.8c-0.1-0.3-2.2-6-8.2-3.9c-2.7,1-4.5,2.2-6.1,2.9v4.2l0,0c0,0,0.1,11,0,13.3
				c0,1.7,8.5,3.7,14.3,5.3v-9.2l0,0v-9.8V119.8L150,119.8z"/>
			<path class="st3" d="M150,210.6c-2.2,0.7-5,1.1-8.4,0.7c-2.3-0.2-4.3-0.7-5.9-1.5c-0.2-0.1-0.4-0.2-0.5-0.2l-6.7,17.6h28.9
				l-6.4-16.9C150.6,210.5,150.3,210.6,150,210.6z"/>
			<path class="st3" d="M135.7,110.4v0.3c0.6-0.1,1.3-0.2,1.9-0.3c1.8-0.4,3.7-0.9,5.4-1.6c3.5-1.5,7.1-1.5,9.4-0.9l7.4-8.1h-33.9
				L135.7,110.4z"/>
			<polygon class="st3" points="159.8,89.9 125.9,89.9 108.9,89.9 108.9,95.6 125.9,95.6 159.8,95.6 176.8,95.6 176.8,89.9 			"/>
			<polygon class="st3" points="151.2,81.4 149.2,81.4 136.5,81.4 134.5,81.4 132.5,81.4 121.8,81.4 120.5,81.4 120.5,87.7 
				165.3,87.7 165.3,81.4 163.9,81.4 153.3,81.4 			"/>
			<path class="st3" d="M130.3,79.1c-2-2.6-3.2-6-3.2-9.5c0-4.8,2.1-9.1,5.5-12c-1.4-0.5-2.9-0.8-4.5-0.8c-7.2,0-13.1,5.9-13.1,13.1
				c0,3.6,1.4,6.8,3.8,9.2H130.3z"/>
			<path class="st3" d="M158.6,69.6c0,3.6-1.2,6.9-3.2,9.5h11.5c2.3-2.4,3.8-5.6,3.8-9.2c0-7.2-5.9-13.1-13.1-13.1
				c-1.6,0-3.1,0.3-4.5,0.8C156.5,60.5,158.6,64.8,158.6,69.6z"/>
			<path class="st3" d="M133.5,79.1h4.1h10.7h4.1c2.5-2.4,4-5.8,4-9.5c0-4.5-2.2-8.4-5.5-10.8c-2.2-1.6-4.9-2.6-7.9-2.6
				c-2.9,0-5.7,1-7.9,2.6c-3.4,2.4-5.5,6.4-5.5,10.8C129.5,73.3,131,76.7,133.5,79.1z"/>
			<path class="st3" d="M111.5,113.7c-1.3,0.9-4.8,2.9-4.8,2.9l2.7-1.2l0.2,2.1v-2.2l3-1.9c-0.1-0.1-0.2-0.2-0.2-0.3
				C112.2,113.1,111.9,113.4,111.5,113.7z"/>
			<path class="st4" d="M154.2,142.9c-1-0.4-2.4-0.8-4.2-1.3c-5.8-1.6-14.3-3.7-14.3-5.3c0-2.2,0-13.3,0-13.3l0,0
				c-0.4-0.1-21.9,16.8,0,25.4c1.3,0.5,2.8,1,4.5,1.5c8.5,2.3,9.7,3.7,9.9,4.1c0,0.1,0,0.2,0,0.2l0,0c0,0,0,0.7,0,1.8
				c0,2.8,0,7.8,0,7.8S173.1,150.4,154.2,142.9z"/>
			<path class="st4" d="M154.1,174.3c-0.9-0.4-2.4-0.8-4-1.3c-5.5-1.5-13.5-3.5-14.3-5.1c0-0.1-0.1-0.2-0.1-0.3c0-2.2,0-13.3,0-13.3
				c-0.3-0.1-22,16.9,0.1,25.4c1.3,0.5,2.7,1,4.3,1.4c10.9,3,9.9,4.3,9.9,4.3v9.6l0.1-0.1C151.6,194.2,172.3,181.6,154.1,174.3z"/>
			<path class="st4" d="M143.8,205.9c-7.4-1.9-8-4.3-8.1-4.7v-0.1v-7.5v-5.8l0,0c-0.1,0-3.2,1-5.4,4.8c-3.5,5.8-2.4,13.6,4.9,17.1
				c0.2,0.1,0.4,0.2,0.5,0.2c1.7,0.7,3.6,1.2,5.9,1.5c3.5,0.3,6.2,0,8.4-0.7c0.3-0.1,0.5-0.2,0.8-0.3c6.5-2.6,7.7-8.5,7.7-8.5
				s-3.9,2.7-8.5,3.9C148,206.2,145.8,206.4,143.8,205.9z"/>
			<path class="st4" d="M135.7,118.8c1.6-0.7,3.4-2,6.1-2.9c6-2.1,8.1,3.7,8.2,3.9l0,0v2.7v9.8l0,0c0.4-0.2,10.5-4.5,11.5-10.3
				c1.8-9.6-7.5-13.5-7.5-13.5c-0.4-0.3-1-0.5-1.7-0.7c-2.3-0.6-5.9-0.6-9.4,0.9c-1.7,0.7-3.6,1.2-5.4,1.6c-0.6,0.1-1.3,0.2-1.9,0.3
				c-2.4,0.4-4.5,0.5-5.3,0.5c-1.6,0-4.8-1.4-6.5-2.6c-1.7-1.1-3.7-0.9-6.8-0.3c-3.1,0.6-5.1,3.7-5.1,3.7s0.1,0.3,0.4,0.9
				c0.1,0.1,0.1,0.2,0.2,0.3c0.5,0.7,1.3,1.7,2.8,3c3.1,2.7,4.7,1.2,5.6,1c0.9-0.3,2-1.9,4.1-1.9s5.6,3.9,8.2,3.9
				C134.1,119.4,134.9,119.2,135.7,118.8z M119.2,112.4c-1.2,0-2.1-1-2.1-1s0.9-1,2.1-1s2.1,1,2.1,1S120.4,112.4,119.2,112.4z"/>
		</g>
	</g>
	<g>
		<g>
			<path class="st5" d="M49.5,195.3l-15.3,7.8l-1.6-3.1l6.8-3.4l-10-2.8l-2.1-4.2l8.9,2.8l6.3-10.8l2,4l-5.1,7.9l3.8,1.2l4.6-2.3
				L49.5,195.3z"/>
			<path class="st5" d="M42.2,180.3l-16.3,5.4l-4-12.1l2.8-0.9l2.9,8.8l3.6-1.2l-2.7-8.2l2.8-0.9l2.7,8.2l4.4-1.5l-3-9.1l2.8-0.9
				L42.2,180.3z"/>
			<path class="st5" d="M37.6,165.6l-17,2.8l-0.6-3.3l10.2-8.8l-11.3,1.9l-0.5-3.2l17-2.8l0.6,3.4l-9.9,8.7l11.1-1.8L37.6,165.6z"/>
			<path class="st5" d="M35,144.5l-7.2,0.1l-9.9,6.5l-0.1-4.1l6.7-4.2l-6.9-3.9l-0.1-4l10.1,6.2l7.2-0.1L35,144.5z"/>
			<path class="st5" d="M36.6,120.3l-0.4,3.8l-4.1,1.1l-0.8,6.8l3.7,1.9l-0.4,3.7L18.3,129l0.4-3.6L36.6,120.3z M29.1,125.9
				l-6.6,1.6l6.1,3L29.1,125.9z"/>
			<path class="st5" d="M38.1,113.8l-16.2-5.7l1.7-4.9l12.1,0.9l-10.1-6.8l1.7-4.9L43.5,98l-1.1,3l-12.8-4.4l11.7,7.7l-1.1,3.2
				l-13.9-1.2l12.8,4.4L38.1,113.8z"/>
			<path class="st5" d="M44.9,95.6l-15.1-8.2l6.1-11.2l2.6,1.4L34,85.8l3.3,1.8l4.1-7.6l2.5,1.4l-4,7.6l4.1,2.2l4.6-8.4l2.5,1.4
				L44.9,95.6z"/>
			<path class="st5" d="M38.7,71.8l3.8-5.1c0.9-1.1,1.6-1.9,2.2-2.4c0.8-0.6,1.8-1,2.8-1.1s2.1,0,3.2,0.4c1.1,0.4,2.3,1,3.6,2
				c1.1,0.9,2,1.7,2.6,2.6c0.7,1.1,1.2,2.2,1.3,3.3c0.1,0.8,0,1.8-0.4,2.8c-0.3,0.8-0.8,1.6-1.6,2.7l-3.9,5.2L38.7,71.8z M43.1,70.8
				l9.1,6.9l1.6-2.1c0.6-0.8,1-1.4,1.1-1.8c0.2-0.5,0.3-1.1,0.3-1.6s-0.3-1.1-0.8-1.7c-0.5-0.7-1.2-1.4-2.3-2.2s-1.9-1.3-2.7-1.6
				c-0.7-0.2-1.3-0.3-1.9-0.2c-0.6,0.1-1.1,0.4-1.6,0.8c-0.4,0.3-1,1-1.9,2.2L43.1,70.8z"/>
			<path class="st5" d="M62.9,69L50.4,57.3l2.4-2.5l12.5,11.8L62.9,69z"/>
			<path class="st5" d="M71.4,52.4l3.3-1.4c0.8,1.8,1.1,3.4,0.8,4.9c-0.3,1.5-1.2,2.8-2.6,4c-1.7,1.5-3.7,2.1-5.8,1.9
				c-2.1-0.2-4.1-1.4-5.8-3.4c-1.9-2.2-2.7-4.3-2.6-6.5c0.1-2.2,1.1-4,2.9-5.6c1.6-1.4,3.3-2,5.1-1.9c1.1,0.1,2.2,0.5,3.4,1.3
				L68,48.6c-0.7-0.5-1.5-0.8-2.3-0.8s-1.6,0.3-2.3,0.9c-1,0.8-1.5,1.8-1.5,3.1c0,1.2,0.7,2.6,2,4.2c1.4,1.7,2.7,2.6,3.9,2.8
				s2.3-0.1,3.2-0.9c0.7-0.6,1.1-1.3,1.2-2.2C72.2,54.5,72,53.5,71.4,52.4z"/>
			<path class="st5" d="M93.2,45.5l-3.2,2L86.7,45l-5.9,3.6l0.8,4.1l-3.1,1.9l-3.3-18.2l3.1-1.9L93.2,45.5z M84.2,43.1l-5.4-4.2
				l1.4,6.7L84.2,43.1z"/>
			<path class="st5" d="M94.5,45.1l-6.7-15.7L91,28l5.6,13l7.9-3.4l1.1,2.7L94.5,45.1z"/>
			<path class="st5" d="M113.2,37.9l-3.5-16.8l7.2-1.5c1.8-0.4,3.1-0.5,4-0.4s1.6,0.5,2.3,1.2c0.6,0.7,1.1,1.5,1.3,2.5
				c0.3,1.3,0.1,2.4-0.5,3.4s-1.6,1.7-3,2.2c0.8,0.3,1.5,0.6,2.1,1s1.4,1.2,2.5,2.3l2.7,2.9l-4.1,0.8l-3.2-3.2
				c-1.1-1.1-1.9-1.8-2.3-2.1c-0.4-0.3-0.8-0.4-1.2-0.5c-0.4-0.1-1,0-1.8,0.2L115,30l1.5,7L113.2,37.9z M114.6,27.5l2.5-0.5
				c1.6-0.3,2.6-0.6,3-0.8c0.4-0.2,0.6-0.5,0.8-0.9c0.2-0.4,0.2-0.8,0.1-1.3c-0.1-0.6-0.4-1-0.7-1.3c-0.4-0.3-0.8-0.4-1.4-0.4
				c-0.3,0-1.1,0.2-2.5,0.5l-2.7,0.5L114.6,27.5z"/>
			<path class="st5" d="M129.6,34.8l-0.9-17.2l12.7-0.7l0.2,2.9l-9.3,0.5l0.2,3.8l8.6-0.5l0.2,2.9l-8.6,0.5l0.3,4.7l9.6-0.5l0.2,2.9
				L129.6,34.8z"/>
			<path class="st5" d="M144.6,28.5h3.4c0.1,1.1,0.4,2,1,2.6s1.4,0.9,2.4,1c1.1,0.1,2-0.1,2.6-0.5s0.9-0.9,1-1.6
				c0-0.4-0.1-0.8-0.3-1.1c-0.2-0.3-0.6-0.6-1.2-0.9c-0.4-0.2-1.3-0.5-2.7-1c-1.8-0.6-3.1-1.3-3.8-2c-1-1-1.4-2.2-1.3-3.6
				c0.1-0.9,0.4-1.7,1-2.4c0.6-0.7,1.3-1.2,2.3-1.5s2.1-0.4,3.4-0.3c2.1,0.2,3.7,0.8,4.7,1.8s1.5,2.3,1.4,3.9l-3.5-0.2
				c-0.1-0.9-0.3-1.6-0.8-2s-1.2-0.7-2.1-0.8c-1-0.1-1.8,0-2.4,0.4c-0.4,0.2-0.6,0.6-0.6,1s0.1,0.8,0.4,1.1c0.4,0.4,1.4,0.9,3.1,1.4
				c1.6,0.5,2.9,1.1,3.6,1.6c0.8,0.5,1.3,1.1,1.7,1.9s0.5,1.7,0.4,2.8c-0.1,1-0.4,1.9-1.1,2.7c-0.6,0.8-1.4,1.4-2.5,1.7
				c-1,0.3-2.3,0.4-3.8,0.3c-2.2-0.2-3.8-0.8-4.9-1.9C145.3,32,144.7,30.5,144.6,28.5z"/>
			<path class="st5" d="M160.4,35.7l4-16.7l12.4,2.9l-0.7,2.8l-9-2.1l-0.9,3.7l8.4,2l-0.7,2.8l-8.4-2l-1.1,4.6l9.3,2.2l-0.7,2.8
				L160.4,35.7z"/>
			<path class="st5" d="M189.7,45.3l-3.5-1.4l0.1-4.2l-6.4-2.6l-2.8,3.1l-3.4-1.4l12.7-13.4l3.4,1.4L189.7,45.3z M186.3,36.6
				l0.2-6.8l-4.5,5L186.3,36.6z"/>
			<path class="st5" d="M190.8,46l8.9-14.7l6.3,3.8c1.6,0.9,2.6,1.8,3.2,2.5c0.6,0.7,0.8,1.5,0.9,2.4c0,0.9-0.2,1.8-0.8,2.7
				c-0.7,1.1-1.5,1.8-2.6,2.2c-1.1,0.3-2.3,0.2-3.7-0.4c0.4,0.8,0.7,1.5,0.8,2.2s0.2,1.8,0.3,3.4l0.1,4l-3.6-2.1l-0.2-4.5
				c-0.1-1.6-0.2-2.6-0.3-3.1s-0.3-0.9-0.5-1.2s-0.7-0.7-1.4-1.1l-0.6-0.4l-3.7,6.1L190.8,46z M198.8,39.2l2.2,1.3
				c1.4,0.9,2.4,1.3,2.8,1.4c0.4,0.1,0.8,0.1,1.2-0.1c0.4-0.2,0.7-0.5,1-0.9c0.3-0.5,0.4-1,0.3-1.4c-0.1-0.5-0.3-0.9-0.8-1.3
				c-0.2-0.2-0.9-0.6-2.1-1.4l-2.3-1.4L198.8,39.2z"/>
			<path class="st5" d="M217.4,57l1.9,3c-1.6,1.1-3.2,1.6-4.7,1.5s-3-0.7-4.4-1.9c-1.7-1.5-2.7-3.3-2.8-5.4
				c-0.1-2.1,0.7-4.2,2.4-6.3c1.8-2.2,3.8-3.4,6-3.7c2.1-0.3,4.1,0.4,6,1.9c1.6,1.4,2.5,2.9,2.7,4.7c0.1,1.1-0.1,2.3-0.7,3.6
				l-3.2-1.6c0.4-0.8,0.5-1.6,0.4-2.4c-0.2-0.8-0.6-1.5-1.3-2.1c-1-0.8-2.1-1.1-3.3-0.9c-1.2,0.2-2.5,1.1-3.8,2.6
				c-1.4,1.7-2.1,3.1-2.1,4.3s0.5,2.2,1.4,3c0.7,0.6,1.5,0.9,2.4,0.9C215.4,58.2,216.4,57.8,217.4,57z"/>
			<path class="st5" d="M217.6,65.7l13-11.3l2.3,2.6l-5.1,4.4l4.5,5.1l5.1-4.5l2.3,2.6l-13,11.3l-2.3-2.6l5.7-4.9l-4.5-5.1l-5.7,4.9
				L217.6,65.7z"/>
			<path class="st5" d="M231.9,83.9l14.7-9l1.8,3l-14.7,9L231.9,83.9z"/>
			<path class="st5" d="M235.3,89.3l15.5-7.3l1.4,3.1L245,96.3l10.4-4.9l1.4,2.9l-15.5,7.3l-1.5-3.2l7.2-11.1l-10.1,4.8L235.3,89.3z
				"/>
			<path class="st5" d="M247.3,102.1l1.3,3.1c-1,0.5-1.7,1.2-2,1.9c-0.3,0.7-0.3,1.6,0,2.6c0.3,1.1,0.8,1.8,1.4,2.2
				c0.6,0.4,1.2,0.5,1.8,0.3c0.4-0.1,0.7-0.3,0.9-0.6c0.2-0.3,0.3-0.8,0.4-1.4c0-0.4,0-1.4-0.1-2.9c-0.1-1.9,0.1-3.3,0.5-4.2
				c0.6-1.3,1.6-2.1,2.9-2.5c0.8-0.3,1.7-0.2,2.6,0c0.9,0.3,1.6,0.8,2.3,1.6c0.6,0.8,1.2,1.8,1.5,3.1c0.6,2.1,0.6,3.8,0,5.1
				c-0.6,1.3-1.6,2.2-3.1,2.7l-1.1-3.3c0.8-0.4,1.3-0.9,1.6-1.5c0.2-0.6,0.2-1.3-0.1-2.3c-0.3-1-0.7-1.7-1.3-2.1
				c-0.4-0.3-0.8-0.4-1.2-0.2c-0.4,0.1-0.7,0.4-0.9,0.8c-0.2,0.5-0.3,1.7-0.2,3.4s0.1,3-0.1,3.9c-0.2,0.9-0.6,1.7-1.1,2.3
				c-0.6,0.6-1.4,1.1-2.4,1.4c-0.9,0.3-1.9,0.3-2.9,0s-1.8-0.8-2.5-1.7c-0.7-0.8-1.2-2-1.7-3.4c-0.6-2.1-0.6-3.8,0-5.2
				C244.4,103.9,245.6,102.8,247.3,102.1z"/>
			<path class="st5" d="M247,123.2l14.1-2.1l-0.8-5l2.9-0.4l2,13.5l-2.9,0.4l-0.8-5l-14.1,2.1L247,123.2z"/>
			<path class="st5" d="M248.2,133.4l17.2-0.9l0.2,3.5l-17.2,0.9L248.2,133.4z"/>
			<path class="st5" d="M248.4,143.7l14.3,0.6l0.2-5.1l2.9,0.1l-0.5,13.7l-2.9-0.1l0.2-5.1l-14.3-0.6L248.4,143.7z"/>
			<path class="st5" d="M264.8,157l-0.6,3.4l-9.2-1.7c-1.5-0.3-2.4-0.4-2.8-0.4c-0.7,0-1.3,0.3-1.9,0.7c-0.5,0.5-0.9,1.2-1,2.1
				c-0.2,1-0.1,1.7,0.2,2.3s0.7,1,1.3,1.2s1.5,0.4,2.8,0.7l9.4,1.7l-0.6,3.4l-8.9-1.7c-2-0.4-3.4-0.7-4.2-1.1s-1.4-0.8-1.9-1.4
				s-0.8-1.4-1-2.2c-0.2-0.9-0.2-2,0.1-3.3c0.3-1.6,0.7-2.8,1.2-3.6s1.1-1.3,1.8-1.7s1.4-0.6,2.1-0.6c1,0,2.5,0.1,4.4,0.5L264.8,157
				z"/>
			<path class="st5" d="M243.3,174l13.5,4.6l1.6-4.8l2.8,0.9l-4.4,12.9l-2.8-0.9l1.6-4.8l-13.5-4.6L243.3,174z"/>
			<path class="st5" d="M239.8,183.6l15.3,7.8l-5.8,11.4l-2.6-1.3l4.2-8.3l-3.4-1.7l-3.9,7.7l-2.6-1.3l3.9-7.7l-4.2-2.1l-4.3,8.6
				l-2.6-1.3L239.8,183.6z"/>
		</g>
		<g>
			<path class="st1" d="M102.6,260.3l4.4-16.6l3.4,0.9l-2,7.4l8.8-5.6l4.5,1.2l-8,4.8l3.9,11.9l-4.3-1.2l-2.5-9l-3.5,2l-1.3,5
				L102.6,260.3z"/>
			<path class="st1" d="M120.9,264.7l2-17.1l12.7,1.5l-0.3,2.9l-9.2-1.1l-0.4,3.8l8.6,1l-0.3,2.9l-8.6-1l-0.5,4.6l9.5,1.1l-0.3,2.9
				L120.9,264.7z"/>
			<path class="st1" d="M138.3,266.5l-0.7-17.2l5.2-0.2l3.6,11.6l2.6-11.8l5.2-0.2l0.7,17.2l-3.2,0.1l-0.5-13.5l-2.9,13.7l-3.3,0.1
				l-3.9-13.4l0.5,13.5L138.3,266.5z"/>
			<path class="st1" d="M160.1,265.1l-3.4-16.8l7.2-1.5c1.8-0.4,3.1-0.5,4-0.3c0.9,0.1,1.6,0.5,2.3,1.2c0.6,0.7,1.1,1.5,1.3,2.5
				c0.3,1.3,0.1,2.4-0.5,3.4s-1.6,1.7-3,2.2c0.8,0.3,1.5,0.6,2.1,1s1.4,1.2,2.5,2.3l2.7,2.9l-4.1,0.8l-3.2-3.2
				c-1.1-1.1-1.9-1.8-2.3-2.1c-0.4-0.3-0.8-0.4-1.2-0.5s-1,0-1.8,0.2l-0.7,0.1l1.4,7L160.1,265.1z M161.5,254.7l2.5-0.5
				c1.6-0.3,2.6-0.6,3-0.8s0.6-0.5,0.8-0.9s0.2-0.8,0.1-1.3c-0.1-0.6-0.4-1-0.7-1.3c-0.4-0.3-0.8-0.4-1.4-0.4
				c-0.3,0-1.1,0.2-2.5,0.4l-2.7,0.5L161.5,254.7z"/>
			<path class="st1" d="M177.9,261l-5.2-16.4l3.3-1l5.2,16.4L177.9,261z"/>
		</g>
		<g>
			<polygon class="st1" points="58.9,221.5 72.9,226 77.4,240 63.5,235.4 			"/>
		</g>
		<g>
			<polygon class="st1" points="224.5,221.5 210.5,226 206,240 219.9,235.4 			"/>
		</g>
	</g>
</g>
</svg>
